<?xml version="1.0" standalone="no"?>
<!DOCTYPE svg PUBLIC "-//W3C//DTD SVG 20010904//EN"
 "http://www.w3.org/TR/2001/REC-SVG-20010904/DTD/svg10.dtd">
<svg version="1.0" xmlns="http://www.w3.org/2000/svg"
 width="512.000000pt" height="512.000000pt" viewBox="0 0 512.000000 512.000000"
 preserveAspectRatio="xMidYMid meet">

<g transform="translate(0.000000,512.000000) scale(0.100000,-0.100000)"
fill="#000000" stroke="none">
<path d="M1480 4629 c-83 -16 -183 -74 -248 -143 -70 -76 -98 -130 -145 -289
-32 -107 -40 -122 -88 -175 -64 -70 -114 -147 -145 -222 -42 -104 -663 -2184
-679 -2274 -96 -558 294 -1099 860 -1191 565 -92 1098 293 1190 860 12 70 15
193 15 541 l0 452 63 17 64 17 54 -28 c47 -24 65 -28 139 -28 74 0 92 4 139
28 l54 28 63 -17 63 -17 3 -496 c4 -468 5 -501 25 -572 37 -132 82 -234 144
-329 146 -221 360 -373 625 -442 126 -33 357 -34 488 -1 451 113 769 500 793
962 4 84 1 140 -11 210 -17 94 -636 2172 -680 2280 -31 75 -81 152 -145 222
-48 53 -56 68 -88 175 -47 159 -75 213 -145 289 -231 246 -644 184 -793 -120
-43 -88 -55 -149 -55 -288 0 -100 -2 -112 -24 -141 -33 -43 -95 -175 -110
-234 -7 -26 -16 -47 -20 -46 -5 1 -19 28 -32 59 -32 79 -70 122 -143 162 -110
61 -232 54 -337 -19 -51 -35 -80 -73 -109 -146 -12 -30 -26 -54 -30 -54 -5 0
-18 31 -30 68 -25 77 -66 163 -101 210 -22 29 -24 41 -24 141 0 139 -12 200
-55 288 -97 199 -321 307 -545 263z m246 -180 c103 -49 179 -155 191 -270 l6
-59 -77 39 c-110 56 -198 76 -336 76 -105 0 -164 -10 -244 -41 -22 -9 13 92
53 149 84 123 268 171 407 106z m1900 16 c108 -32 186 -108 224 -221 17 -47
17 -55 4 -50 -83 32 -138 41 -249 40 -141 0 -211 -16 -329 -75 l-79 -40 6 60
c12 108 75 205 168 256 87 47 167 56 255 30z m-1924 -418 c37 -13 89 -38 116
-56 61 -39 150 -131 184 -191 34 -57 72 -171 61 -180 -4 -4 -33 -15 -63 -24
-77 -21 -217 -91 -228 -113 -6 -10 -29 -225 -52 -477 -31 -342 -39 -465 -31
-482 6 -15 35 -35 77 -54 89 -40 177 -105 252 -184 l62 -67 0 -149 c0 -83 -2
-150 -3 -150 -2 0 -21 24 -41 54 -47 68 -182 199 -256 247 -372 245 -848 235
-1197 -26 -32 -24 -59 -42 -60 -41 -8 8 471 1571 496 1622 74 144 217 253 386
294 69 16 222 5 297 -23z m2027 18 c150 -36 299 -149 367 -280 20 -38 118
-348 263 -830 127 -423 234 -778 237 -788 4 -13 -18 -2 -73 36 -236 165 -496
226 -768 182 -146 -24 -307 -87 -424 -167 -68 -47 -204 -181 -247 -244 -20
-30 -39 -54 -41 -54 -1 0 -3 67 -3 150 l0 149 62 67 c75 79 163 144 252 184
42 19 71 39 77 54 8 17 0 140 -31 482 -23 252 -46 467 -51 477 -12 22 -125 79
-219 111 -39 13 -73 26 -76 29 -8 8 35 128 64 177 77 134 241 248 392 273 57
10 159 6 219 -8z m-1081 -332 c14 -10 35 -32 46 -47 20 -27 21 -41 24 -478 2
-429 2 -450 -15 -443 -107 44 -179 44 -285 0 -17 -7 -18 17 -18 428 0 284 4
445 11 464 14 37 47 72 84 89 40 19 119 12 153 -13z m-410 -599 l-3 -357 -111
-22 c-61 -12 -145 -33 -187 -45 -43 -13 -79 -21 -81 -19 -5 5 58 697 64 702
23 20 258 95 303 96 16 1 17 -20 15 -355z m745 337 c67 -18 204 -67 217 -78 6
-5 69 -697 64 -702 -2 -2 -38 6 -81 19 -42 12 -126 33 -187 45 l-111 22 -3
357 c-2 294 0 356 11 356 8 0 48 -9 90 -19z m-360 -845 c103 -43 128 -177 48
-257 -65 -65 -157 -65 -222 0 -124 123 13 325 174 257z m-381 -123 c3 -60 9
-115 12 -124 6 -13 -1 -20 -28 -29 l-36 -11 -56 60 c-31 33 -83 81 -115 105
l-60 45 53 15 c86 25 171 44 199 45 l26 1 5 -107z m768 87 c47 -11 100 -25
117 -31 l33 -11 -59 -44 c-33 -24 -84 -72 -115 -105 l-56 -60 -36 11 c-30 10
-35 15 -29 34 4 11 9 67 12 124 6 119 -2 114 133 82z m-1595 -378 c325 -89
554 -320 641 -648 27 -103 26 -312 -3 -419 -87 -320 -318 -551 -638 -638 -107
-29 -316 -30 -419 -3 -386 103 -648 416 -673 805 -16 248 77 490 257 671 132
131 282 211 465 246 94 18 278 11 370 -14z m2720 0 c325 -89 554 -320 641
-648 27 -103 26 -312 -3 -419 -87 -320 -318 -551 -638 -638 -107 -29 -316 -30
-419 -3 -386 103 -648 416 -673 805 -16 248 77 490 257 671 132 131 282 211
465 246 94 18 278 11 370 -14z"/>
<path d="M1060 2066 c-155 -34 -256 -89 -370 -205 -67 -67 -95 -105 -128 -171
-62 -125 -77 -192 -76 -340 1 -107 5 -137 27 -205 15 -44 43 -109 64 -145 47
-80 178 -213 255 -259 237 -138 534 -131 760 18 320 212 421 633 231 961 -49
83 -180 214 -263 263 -142 82 -346 116 -500 83z m321 -178 c149 -55 254 -147
319 -282 149 -309 0 -664 -327 -777 -191 -65 -420 -11 -567 136 -110 110 -161
234 -161 395 0 158 50 282 156 390 80 81 180 136 294 161 70 15 213 3 286 -23z"/>
<path d="M3780 2066 c-155 -34 -256 -89 -370 -205 -67 -67 -95 -105 -128 -171
-62 -125 -77 -192 -76 -340 1 -107 5 -137 27 -205 15 -44 43 -109 64 -145 47
-80 178 -213 255 -259 237 -138 534 -131 760 18 320 212 421 633 231 961 -49
83 -180 214 -263 263 -142 82 -346 116 -500 83z m321 -178 c149 -55 254 -147
319 -282 149 -309 0 -664 -327 -777 -191 -65 -420 -11 -567 136 -110 110 -161
234 -161 395 0 158 50 282 156 390 80 81 180 136 294 161 70 15 213 3 286 -23z"/>
</g>
</svg>
