<?xml version="1.0" standalone="no"?>
<!DOCTYPE svg PUBLIC "-//W3C//DTD SVG 20010904//EN"
 "http://www.w3.org/TR/2001/REC-SVG-20010904/DTD/svg10.dtd">
<svg version="1.0" xmlns="http://www.w3.org/2000/svg"
 width="512.000000pt" height="512.000000pt" viewBox="0 0 512.000000 512.000000"
 preserveAspectRatio="xMidYMid meet">

<g transform="translate(0.000000,512.000000) scale(0.100000,-0.100000)"
fill="#000000" stroke="none">
<path d="M2349 5105 c-662 -90 -1192 -598 -1315 -1260 -26 -139 -26 -411 0
-550 50 -268 138 -457 353 -750 159 -218 301 -545 357 -821 l17 -82 -30 -46
c-90 -143 -79 -362 27 -501 33 -43 95 -99 137 -122 12 -7 11 -18 -5 -72 -53
-167 -1 -358 128 -471 79 -70 155 -101 281 -113 l111 -11 0 -93 c0 -115 20
-162 80 -193 50 -25 90 -25 140 0 60 31 80 78 80 193 l0 93 110 11 c126 12
205 44 281 111 130 116 182 305 129 474 -13 42 -16 64 -9 67 29 9 118 93 152
141 97 139 102 360 11 493 l-26 38 16 79 c23 113 67 261 111 370 76 191 144
309 346 595 124 175 212 384 256 610 27 137 24 435 -5 571 -32 148 -65 243
-137 389 -143 291 -387 539 -677 690 -284 147 -603 203 -919 160z m394 -300
c324 -49 624 -231 823 -500 151 -205 230 -429 241 -685 12 -296 -67 -552 -244
-795 -237 -327 -387 -633 -458 -937 l-19 -78 -526 0 -527 0 -23 93 c-69 281
-226 613 -401 847 -92 123 -163 240 -198 323 -145 349 -133 735 34 1062 245
479 769 750 1298 670z m363 -3337 c68 -67 55 -181 -25 -230 l-36 -23 -485 0
-485 0 -36 23 c-50 30 -73 81 -66 145 4 44 10 56 46 89 l41 39 505 -3 505 -3
36 -37z m-200 -600 c68 -67 55 -181 -25 -230 -35 -23 -42 -23 -321 -23 -279 0
-286 0 -321 23 -50 30 -73 81 -66 145 4 44 10 56 46 89 l41 39 305 -3 305 -3
36 -37z"/>
<path d="M2484 4245 c-77 -46 -75 -32 -72 -612 3 -499 4 -512 24 -539 37 -50
70 -68 124 -68 54 0 87 18 124 68 20 27 21 40 24 542 2 500 2 515 -18 554 -23
45 -80 80 -132 80 -18 0 -51 -11 -74 -25z"/>
<path d="M2486 2706 c-72 -43 -94 -122 -56 -196 23 -45 80 -80 130 -80 76 0
150 74 150 151 0 46 -39 108 -82 130 -50 25 -95 24 -142 -5z"/>
<path d="M350 4833 c-90 -47 -109 -179 -34 -244 34 -29 406 -221 440 -226 46
-8 78 3 119 38 64 56 68 154 8 211 -16 15 -115 73 -222 129 -212 111 -251 123
-311 92z"/>
<path d="M4645 4836 c-83 -36 -384 -201 -408 -224 -61 -57 -57 -153 8 -211 41
-36 73 -46 120 -38 34 6 405 196 439 226 29 26 46 67 46 114 0 105 -109 175
-205 133z"/>
<path d="M84 3700 c-109 -54 -109 -212 0 -264 28 -13 73 -16 270 -16 216 0
240 2 275 20 41 21 81 85 81 130 0 48 -39 108 -84 129 -39 19 -61 21 -272 21
-210 0 -232 -2 -270 -20z"/>
<path d="M4493 3699 c-45 -22 -83 -82 -83 -130 1 -48 36 -107 79 -128 37 -19
58 -21 278 -21 213 0 242 2 273 19 42 22 80 83 80 130 0 50 -37 108 -85 131
-38 18 -62 20 -271 20 -212 0 -232 -2 -271 -21z"/>
<path d="M542 2674 c-114 -59 -215 -114 -226 -123 -34 -30 -48 -71 -44 -128 5
-57 28 -92 80 -119 58 -30 92 -20 317 99 209 109 216 113 239 159 19 37 23 55
17 88 -12 70 -81 130 -150 130 -15 0 -119 -48 -233 -106z"/>
<path d="M4285 2766 c-44 -19 -82 -69 -90 -116 -6 -33 -2 -51 17 -88 23 -46
30 -50 239 -159 225 -119 259 -129 317 -99 53 28 75 62 80 124 6 84 -18 113
-143 180 -325 173 -360 186 -420 158z"/>
</g>
</svg>
